<svg xmlns="http://www.w3.org/2000/svg"><symbol id="feture-2" viewBox="0 0 43 25"><defs><style>.cls-1{fill:#fff}</style></defs><g id="Слой_2"><g id="Layer_1"><path d="M42.85 12.21l-5.77-5.76a22.2 22.2 0 0 0-31.3 0L.15 12.07a.51.51 0 0 0 0 .72l5.77 5.75a22.2 22.2 0 0 0 31.3 0l5.63-5.62a.51.51 0 0 0 0-.72zm-35.2 4.61l-4.41-4.39 4.27-4.25a19.75 19.75 0 0 1 27.84 0l4.41 4.39-4.27 4.25a19.75 19.75 0 0 1-27.84 0z" class="cls-1"/><path d="M21 7.8a4.17 4.17 0 0 0-4.21 4.2 1 1 0 0 0 2.07 0A2.1 2.1 0 0 1 21 9.86a1 1 0 1 0 0-2.06z" class="cls-1"/><path d="M21.48 4.19a8.29 8.29 0 1 0 8.31 8.29 8.31 8.31 0 0 0-8.31-8.29zm0 14.36a6.07 6.07 0 1 1 6.09-6.07 6.09 6.09 0 0 1-6.09 6.07z" class="cls-1"/></g></g></symbol><symbol id="feture-1" viewBox="0 0 409.6 324.17"><path d="M409.6 110.1a107.31 107.31 0 0 1-5.6 34.18c-17.4 78.72-167.84 174-174.24 178a12.34 12.34 0 0 1-6.53 1.89 11.8 11.8 0 0 1-6.56-1.89 834.76 834.76 0 0 1-87.08-64.63 12.22 12.22 0 0 1 15.85-18.59 842.72 842.72 0 0 0 77.85 58.41C268.46 268 368.21 193.06 380.43 137.78a87.19 87.19 0 0 0 4.64-27.66 86.18 86.18 0 0 0-44.6-75.46c-35.13-19.49-82.16-10.5-107.86 20.48-4.62 5.59-14.12 5.59-18.82 0C188 24.13 141 15.21 105.93 34.62a86.14 86.14 0 0 0-44.68 75.45 85 85 0 0 0 4.34 26.49c1.81 8.06 5.28 15.94 9.69 24.12h71.27L171 104.44a12.18 12.18 0 0 1 23 2.05l18 76.17 23.3-38.21a12.16 12.16 0 0 1 10.42-5.85H290a12.21 12.21 0 0 1 0 24.4h-37.34l-35.11 57.67a12.18 12.18 0 0 1-10.39 5.87 12.17 12.17 0 0 1-11.88-9.37l-16.47-69.38-13 29.95a12.17 12.17 0 0 1-11.21 7.34H12.21a12.21 12.21 0 0 1 0-24.42H48A106.11 106.11 0 0 1 42.15 143a102.86 102.86 0 0 1-5.25-33 110.54 110.54 0 0 1 57.28-96.77c41-22.67 95.22-15.54 129.09 16.28 33.78-31.83 88-39 129-16.28a110.62 110.62 0 0 1 57.33 96.87zm0 0"/></symbol><symbol id="feture-3" viewBox="0 0 48 53"><defs><style>.cls-1{fill:#fff}</style></defs><g id="Слой_2"><g id="Isolation_Mode"><path d="M20.34 53a2.63 2.63 0 0 1-.77-.11 1.75 1.75 0 0 1-1.21-1.09 1.81 1.81 0 0 1 .31-1.63 3.89 3.89 0 0 0 .45-2.86c0-.31-.08-.61-.12-.92-.13-1-.27-2.06-.33-3.11-.07-1.31-.08-2.7 0-4.24v-.6a12.32 12.32 0 0 0 0-1.5c0-.49-.11-1-.18-1.47l-.08-.55c-.13-1-.22-2-.31-2.94 0-.42-.08-.84-.12-1.26-.06-.63-.13-1.26-.2-1.88s-.14-1.22-.2-1.84c-.14-1.4-.2-2.83-.27-4.2v-.61c0-.41 0-.83-.05-1.24 0-1-.08-2-.16-2.94v-.28a3 3 0 0 0-.49-1.83 1.34 1.34 0 0 0-.8-.33l-.89-.07-1.06-.09-.59-.06a18 18 0 0 0-1.91-.14h-.46c-.52 0-1 .09-1.52.15l-1.9.23-2.58.31-.75.1a17 17 0 0 1-2.15.15 6.94 6.94 0 0 1-.81 0 1.43 1.43 0 0 1-1-.52 1.21 1.21 0 0 1-.15-1c.27-1.23 1.52-1.5 2.34-1.63l.43-.1c1.32-.35 2.69-.72 4.08-1l.32-.07a17.48 17.48 0 0 1 2.08-.4c1-.11 2-.18 3-.25L14 11c1.12-.08 2.28-.16 3.42-.25h.2c.37 0 .8-.07 1.11-.11h.54a2.84 2.84 0 0 1 1 .27l.24.09a4.69 4.69 0 0 0 1.26.24H22a8.1 8.1 0 0 0 1.19-.27 7.39 7.39 0 0 1 1.64-.32c1.11-.07 2.24-.1 3.34-.13h2.37c.48 0 1-.06 1.48-.06a9.56 9.56 0 0 1 1 0c1.57.16 3.21.35 5 .6l.64.08a10.11 10.11 0 0 1 2 .34c.95.3 1.06.92 1 1.26a1.18 1.18 0 0 1-.6 1 3 3 0 0 1-.94.26H40c-.55.09-1.09.15-1.6.21-1.55.18-3.12.32-4.64.47s-3 .28-4.51.45c-.53.06-1.13.13-1.72.22h-.08c-.62.09-1 .18-1.2.49a3.31 3.31 0 0 0-.25.9c0 .13 0 .25-.06.38v.11a12.11 12.11 0 0 0-.22 1.87 17.16 17.16 0 0 0 .28 3.44l.92.09 2.87.29A60.89 60.89 0 0 1 36.68 24a43.49 43.49 0 0 1 4.61 1.18 11.05 11.05 0 0 1 1.27.54l.49.23a14.91 14.91 0 0 0 2.75.83l.31.07h.21a2.82 2.82 0 0 1 1.59 1.52 1.47 1.47 0 0 1-.11 1.28 2.39 2.39 0 0 1-2.11 1.17 3.16 3.16 0 0 1-1.08-.2l-1.24-.48a22.43 22.43 0 0 0-2.37-.76 8 8 0 0 0-2.13-.25h-.88l-1.09.07c-.76.05-1.54.11-2.32.11h-.14c-.6 0-1.21 0-1.79-.09h-.73l-5-.29h-.34l-2-.12h-.31v.68q0 1-.09 2.08v.61c-.06 1.34-.12 2.73-.2 4.09 0 .58-.1 1.16-.17 1.71s-.15 1.22-.17 1.82a35.09 35.09 0 0 1-.34 4.17c-.06.41-.14.83-.21 1.23a21.69 21.69 0 0 0-.39 2.9 11.39 11.39 0 0 0 .09 1.64v.24a3.72 3.72 0 0 1-.16 1.68A2.26 2.26 0 0 1 20.34 53zm.44-2.73a4.14 4.14 0 0 1-.19.43 2.48 2.48 0 0 1-.15.24l-.08.12a.65.65 0 0 0 .29-.06c.06 0 .17-.18.13-.73zm-9.65-37h.36c1.18 0 2.36.16 3.51.27l.73.07A3.12 3.12 0 0 1 18.28 15a6.08 6.08 0 0 1 .7 2.79v.07c0 .49.06 1 .09 1.48v.2q0 .75.07 1.51c.05 1.19.11 2.42.18 3.62s.22 2.71.37 4l.18 1.73c.06.58.08.89.12 1.33.09 1 .17 2 .31 3l.07.49a21 21 0 0 1 .2 1.64 15.53 15.53 0 0 1 0 1.56v4.64c.05 1 .17 1.92.3 2.91 0-.3.1-.59.15-.88s.1-.57.14-.85a32.33 32.33 0 0 0 .4-4.16c0-.71.11-1.4.19-2.07s.14-1.13.17-1.69c.07-1.3.13-2.63.19-3.92v-1.8c0-.71.06-1.44.1-2.17a1.78 1.78 0 0 1 1.17-1.6.92.92 0 0 1 .25 0H24l1.2.07 2.15.12 3.27.18 1 .06c1.05.07 2.14.14 3.21.14h2.01c.69 0 1.41-.1 2.12-.1h.64a11 11 0 0 1 2.92.61l-.7-.33-.31-.15a11.58 11.58 0 0 0-2-.66l-.2-.05c-1.45-.38-3-.73-4.87-1.09l-.4-.08c-.89-.17-1.82-.36-2.72-.44l-2.62-.26-1.49-.15-1.21-.22h-.25a3.34 3.34 0 0 1-.77-.1 1 1 0 0 1-.67-.71 21.6 21.6 0 0 1-.56-4.22 12.92 12.92 0 0 1 .2-2.19c0-.16 0-.33.07-.5a7.86 7.86 0 0 1 .26-1.35 2.85 2.85 0 0 1 2.24-2c.5-.1 1-.17 1.51-.23 1.94-.25 3.92-.43 5.83-.61l1.09-.1c-.88-.11-1.77-.21-2.64-.28h-1.23l-2.48.09h-1.19c-1 0-2 0-3 .14h-.23l-.54.16a11 11 0 0 1-1.35.3 4 4 0 0 1-.57 0 7.86 7.86 0 0 1-2.41-.5l-.17-.05h-.34l-1.07.11c-1 .09-2 .16-3 .23l-1.06.07-2.67.39h-.4a13.75 13.75 0 0 0-1.6.22l-1.06.22H8l.68-.09a18.38 18.38 0 0 1 2.45-.22zm32.7 15l1.05.43a2.4 2.4 0 0 0 .85.24.54.54 0 0 0 .2 0 .77.77 0 0 0-.25-.18l-.43-.1c-.47-.11-.95-.22-1.42-.36z" class="cls-1"/><path d="M46 27.49a17.77 17.77 0 0 1-3.23-1 18.12 18.12 0 0 0-1.71-.75 43.15 43.15 0 0 0-4.55-1.16 60.42 60.42 0 0 0-6.77-1.09l-2.87-.29-1.14-.12h-.43l.24.24a19.35 19.35 0 0 1-.52-4.24 13.48 13.48 0 0 1 .29-2.08 5.24 5.24 0 0 1 .4-1.65c.34-.63 1.09-.72 1.73-.82s1.16-.16 1.75-.22c3-.35 6.1-.57 9.14-.92.52-.06 1-.12 1.57-.21a2.75 2.75 0 0 0 .82-.21.55.55 0 0 0 .26-.46c0-.38-.31-.55-.62-.65a15.17 15.17 0 0 0-2.49-.4c-1.66-.22-3.32-.43-5-.6a23.87 23.87 0 0 0-3.26.06c-1.6.06-3.2.09-4.79.18a6.86 6.86 0 0 0-1.51.3 8.59 8.59 0 0 1-1.28.28 4.4 4.4 0 0 1-1.73-.25c-.32-.09-1-.47-1.3-.28.11-.06 0 0 0 0h-.2c-.39.06-.91.1-1.34.13-1.46.12-2.92.22-4.37.32-1.23.09-2.47.16-3.7.29a20.2 20.2 0 0 0-2.39.54c-1.36.31-2.71.67-4.06 1-.77.21-2.1.29-2.33 1.24-.12.54.19.72.65.78a15.84 15.84 0 0 0 3.47-.21c1.5-.16 3-.36 4.48-.53.52-.06 1-.12 1.55-.15a19.13 19.13 0 0 1 3.06.19c.65.06 1.3.1 1.94.16a1.93 1.93 0 0 1 1.18.5 3.9 3.9 0 0 1 .7 2.5c.11 1.4.15 2.8.21 4.2.07 1.59.13 3.19.29 4.78.12 1.24.28 2.48.4 3.72s.23 2.79.42 4.17c.09.69.21 1.37.26 2.06a20.66 20.66 0 0 1 0 2.17v4.19c0 1.39.28 2.66.45 4a4.58 4.58 0 0 1-.56 3.3 1.06 1.06 0 0 0 .58 1.77 1.78 1.78 0 0 0 2.19-.89 3.06 3.06 0 0 0 .13-1.4A13.83 13.83 0 0 1 22 48a37.49 37.49 0 0 1 .6-4.19 34.37 34.37 0 0 0 .34-4.1c0-1.19.28-2.36.35-3.54.08-1.57.15-3.14.23-4.7l.1-2.21c0-.36-.08-1.06.33-1.24h-.27a5.73 5.73 0 0 0 .91.07l2 .12 5.36.3c.83 0 1.66.13 2.49.14 1.17 0 2.34-.11 3.5-.17a10.11 10.11 0 0 1 3.21.25c1.27.34 2.45.89 3.69 1.34a1.94 1.94 0 0 0 2.44-.71c.46-.78-.55-1.71-1.23-1.91a.35.35 0 0 0-.18.67 1.59 1.59 0 0 1 .78.66c.18.28-.23.59-.46.69a2.07 2.07 0 0 1-1.53-.21q-.91-.39-1.84-.73a11.37 11.37 0 0 0-3.28-.76 31.66 31.66 0 0 0-3.43.13 46.07 46.07 0 0 1-5.53-.16l-5.18-.24-1.48-.09h-.11a.37.37 0 0 0-.19 0 1.18 1.18 0 0 0-.71 1c-.06 1.08-.1 2.17-.15 3.25-.07 1.54-.14 3.09-.22 4.63-.07 1.26-.31 2.49-.35 3.75a33 33 0 0 1-.41 4.24 29.86 29.86 0 0 0-.53 4 14.47 14.47 0 0 0 .14 1.77c0 .5 0 1.15-.44 1.43a1.34 1.34 0 0 1-1.32-.08c-.26-.21.31-.87.41-1.06a5.64 5.64 0 0 0 .37-3.33c-.17-1.34-.36-2.66-.44-4s-.07-2.8 0-4.19c0-.67.07-1.34 0-2s-.17-1.39-.27-2.08c-.2-1.43-.3-2.89-.44-4.33-.19-1.93-.44-3.85-.55-5.78-.1-1.71-.17-3.42-.25-5.14 0-.55 0-1.1-.09-1.65a5.71 5.71 0 0 0-.61-2.59 2.56 2.56 0 0 0-2.07-1.08c-1.4-.13-2.81-.28-4.21-.34a21 21 0 0 0-3.38.29c-1.51.18-3 .38-4.54.52-.58.05-1.16.1-1.75.11h-.64.07c.07 0 .06.08.14-.08s.31-.19.44-.23.57-.15.86-.23l2.11-.56c1.35-.35 2.71-.68 4.08-1a18.46 18.46 0 0 1 2.13-.14l3.46-.25c1.09-.08 2.17-.15 3.26-.25l1-.11a1.59 1.59 0 0 0 .61-.13h-.27a7.24 7.24 0 0 0 3.13.57 10.41 10.41 0 0 0 1.28-.29l.53-.15.28-.08c1.4-.16 2.84-.14 4.25-.18l2.47-.05a10.75 10.75 0 0 1 1.31-.06c1.48.12 3 .31 4.43.5.86.11 1.71.22 2.57.36l.6.1.32.08c.16.05 0 0 0-.1a.17.17 0 0 1 .1-.1l-.17.05a21.69 21.69 0 0 1-3 .4c-3 .32-6.08.54-9.1.93-.49.06-1 .13-1.47.23a2.24 2.24 0 0 0-1.77 1.59 12.66 12.66 0 0 0-.32 1.76 12.16 12.16 0 0 0-.19 2.09 21 21 0 0 0 .54 4.1.34.34 0 0 0 .24.24 5.22 5.22 0 0 0 .91.1l1.94.2 3.32.33c1.07.1 2.12.32 3.17.53 1.64.32 3.28.67 4.91 1.1a13.29 13.29 0 0 1 2.32.75 16.83 16.83 0 0 0 1.75.77c.77.26 1.58.43 2.38.62.44.1.62-.56.19-.67zM22 9.35a4.43 4.43 0 0 1-2.53-.78 4.71 4.71 0 0 1-1.72-5.7A4.72 4.72 0 0 1 22 0a4.47 4.47 0 0 1 .91.09 4.71 4.71 0 0 1 3.79 4.58v.09a4.66 4.66 0 0 1-1.33 3.19A4.85 4.85 0 0 1 22 9.35zm0-7.41a2.88 2.88 0 0 0-1.95.82 2.61 2.61 0 0 0-.8 1.91A2.79 2.79 0 0 0 22 7.43a2.79 2.79 0 0 0 2.75-2.74 2.79 2.79 0 0 0-2.69-2.74z" class="cls-1"/><path d="M25.39 4.68a3.36 3.36 0 1 1-6.73 0 3.36 3.36 0 1 1 6.73 0 .35.35 0 0 0 .69 0 4.05 4.05 0 0 0-7.8-1.56 4.05 4.05 0 1 0 7.79 1.56.35.35 0 0 0-.69 0zm0 0" class="cls-1"/></g></g></symbol><symbol id="feture-7" viewBox="0 0 49 33"><defs><style>.cls-1{fill:#fff}</style></defs><g id="Слой_2"><g id="Isolation_Mode"><path d="M20.41 33a4.33 4.33 0 0 1-2.41-.77 1 1 0 0 1-.45-.85.93.93 0 0 1 .48-.79l.47-.25a3.88 3.88 0 0 0 1.25-.85 5.51 5.51 0 0 0 1-1.68 13.37 13.37 0 0 0 .73-4.25v-3.32a13.71 13.71 0 0 1 0-1.69c0-.31.07-.62.11-.92a10.88 10.88 0 0 0 .14-1.45 10.37 10.37 0 0 0-.23-2.33c-.09-.39-.21-.79-.35-1.21a7.4 7.4 0 0 1-.51-3.15 4.49 4.49 0 0 0-.29-2.68 3.3 3.3 0 0 0-1.08-1.22 3.33 3.33 0 0 0-1.41-.37h-.64a19.55 19.55 0 0 1-2-.34c-.29-.07-.58-.16-.86-.24a10.52 10.52 0 0 0-1.13-.29A20.25 20.25 0 0 0 10.15 4H9c-.39 0-.77-.06-1.13-.09s-.64-.07-1-.08h-.23a1.14 1.14 0 0 0-.85.25 1.5 1.5 0 0 1-1.07.55A1.39 1.39 0 0 1 4 4.4a1.45 1.45 0 0 1-.47-.45H1a1 1 0 0 1-.94-.75v-.08a1.07 1.07 0 0 1 .22-1.05L.35 2a1.69 1.69 0 0 1 .75-.51A32.22 32.22 0 0 1 10 .27h.29c1.51 0 3 .05 4.53.1s2.89.09 4.33.1h2a17.68 17.68 0 0 0 2.53-.13h.18A21.45 21.45 0 0 1 27 0a9.78 9.78 0 0 1 1.17.07 29.2 29.2 0 0 1 4.29.93l1.12.3a30.13 30.13 0 0 1 3 .88A7.89 7.89 0 0 1 41.1 6.4a17.86 17.86 0 0 1 .9 2.89c.07.27.13.53.2.8.39 1.46.8 2.94 1.24 4.39l.19.66c.15.52.3 1.05.49 1.54a7.17 7.17 0 0 0 .54 1c.1.18.21.36.31.55a13.63 13.63 0 0 1 1.13 3.45l.17.74c.26 1.05.53 2.12.79 3.16l.31 1.22c.06.22.11.45.15.66a4.66 4.66 0 0 0 1 2.37 1.46 1.46 0 0 1 .31 1.7 1.8 1.8 0 0 1-1.63.8h-.97a1.77 1.77 0 0 1-1.81-1 3.83 3.83 0 0 1-.27-1.23v-.29a12.05 12.05 0 0 0-.35-1.76 22.42 22.42 0 0 0-1.26-3.36c-.65-1.42-1.33-2.86-2-4.25l-1.37-2.9C38.6 16.51 38 15.27 37.42 14c-.29-.6-.63-1.2-1-1.78-1.12 1.86-2.3 3.78-3.42 5.62l-.84 1.39c-1.13 1.88-2.29 3.82-3.58 5.64a31 31 0 0 1-2.49 3.05c-.15.17-.32.33-.48.49a5.28 5.28 0 0 0-.83.94 2.11 2.11 0 0 0-.23.92v.3a2 2 0 0 1-1 1.59 8.19 8.19 0 0 1-1.1.38l-.64.2a4 4 0 0 1-1.4.26zm-8-30.77l.63.07a12.51 12.51 0 0 1 1.73.39l.81.22c.7.17 1.4.27 2.14.37l.49.07a4.64 4.64 0 0 1 2.34.78A5.45 5.45 0 0 1 22.67 9a5.67 5.67 0 0 0 .07 2c.08.3.17.59.26.9s.23.74.32 1.12a12.42 12.42 0 0 1 .28 4.41c0 .17-.05.34-.08.51a5.05 5.05 0 0 0-.09.66v3.17a24.54 24.54 0 0 1-.27 4.39 10.35 10.35 0 0 1-1.23 3.6A6.54 6.54 0 0 1 21 31l.55-.18.45-.12h.17a1.5 1.5 0 0 0 .38-.13.85.85 0 0 0 0-.3v-.17a3.76 3.76 0 0 1 .45-1.44 5.17 5.17 0 0 1 .93-1.19l.21-.22c.38-.41.83-.89 1.25-1.39A27.37 27.37 0 0 0 27.54 23c1.16-1.77 2.28-3.62 3.37-5.41l.7-1.16c1-1.72 2.12-3.44 3.17-5.12l.85-1.37a1 1 0 0 1 .83-.46.94.94 0 0 1 .82.47l.53.88c.37.6.75 1.23 1.08 1.88s.77 1.6 1.14 2.38l.34.73.87 1.88c.68 1.45 1.38 3 2.08 4.43l.18.39A28.38 28.38 0 0 1 45.69 28v-.16c-.18-.79-.39-1.6-.59-2.38-.14-.54-.28-1.09-.42-1.64l-.08-.35c-.14-.58-.29-1.18-.44-1.77l-.16-.5a10.44 10.44 0 0 0-.43-1.47 7.68 7.68 0 0 0-.51-1c-.12-.2-.24-.41-.36-.64a10.47 10.47 0 0 1-.7-1.83v-.06c-.53-1.73-.94-3.13-1.29-4.42-.13-.47-.25-1-.36-1.43-.2-.82-.4-1.66-.68-2.46a6.12 6.12 0 0 0-3.47-3.86 25.78 25.78 0 0 0-2.84-.86l-1.06-.24-.42-.12A23.77 23.77 0 0 0 28.06 2a9.05 9.05 0 0 0-1 0 20.62 20.62 0 0 0-2.82.26l-.51.07a21 21 0 0 1-2.73.06h-1.9c-1.81 0-3.28 0-4.64-.07L13 2.26zm33.68 28.33h.53a6.83 6.83 0 0 1-.84-2.14c.1.45.17.86.22 1.25v.36a2.27 2.27 0 0 0 .09.53z" class="cls-1"/><path d="M48.11 30.28A6.65 6.65 0 0 1 46.82 27c-.37-1.46-.74-2.92-1.1-4.38a17 17 0 0 0-1.25-4.05 14.79 14.79 0 0 1-.88-1.66c-.28-.72-.47-1.5-.69-2.24q-.66-2.19-1.25-4.41a24.13 24.13 0 0 0-1.08-3.6 7.27 7.27 0 0 0-4.21-3.91c-1.3-.49-2.71-.79-4.05-1.16a28.66 28.66 0 0 0-4.19-.95 16.19 16.19 0 0 0-4.36.27 31.37 31.37 0 0 1-4.66.14C16 1 13 .84 10 .85A31.58 31.58 0 0 0 1.27 2a1.47 1.47 0 0 0-.58.45c-.17.17-.09.4-.05.61a.37.37 0 0 0 .36.31h2.9a.89.89 0 0 0 .4.54c.46.28.74.11 1.08-.24a1.91 1.91 0 0 1 1.52-.43c.69 0 1.38.15 2.08.18a32.8 32.8 0 0 1 4.44.28c.69.12 1.34.38 2 .54a22.19 22.19 0 0 0 2.19.36 4.76 4.76 0 0 1 2 .5 3.87 3.87 0 0 1 1.27 1.44 5 5 0 0 1 .35 3c-.18 1.41.54 2.81.84 4.16a11 11 0 0 1 .25 2.46c0 .82-.18 1.61-.26 2.42s0 1.67 0 2.48v2.48a14.06 14.06 0 0 1-.74 4.46 6.05 6.05 0 0 1-1.08 1.86 6.18 6.18 0 0 1-1.88 1.23.38.38 0 0 0 0 .64 3.4 3.4 0 0 0 3.19.47c.56-.2 1.15-.32 1.69-.57a1.44 1.44 0 0 0 .67-1.13 3.4 3.4 0 0 1 .34-1.44 10.86 10.86 0 0 1 1.38-1.53 30.85 30.85 0 0 0 2.44-3c1.59-2.25 3-4.65 4.4-7 1.3-2.15 2.64-4.28 4-6.41.52.87 1.06 1.73 1.49 2.64q.87 1.82 1.72 3.65c1.11 2.39 2.26 4.76 3.36 7.15A23 23 0 0 1 44.32 28a12.59 12.59 0 0 1 .37 1.85 4.64 4.64 0 0 0 .25 1.36c.37.85 1.47.63 2.2.58.38 0 1-.06 1.19-.47a.9.9 0 0 0-.22-1.06zm-.79.77l-.92.07c-.26 0-.59.06-.76-.19a2.83 2.83 0 0 1-.22-1.23 13.58 13.58 0 0 0-.29-1.56 30 30 0 0 0-2.32-5.78c-1-2.1-2-4.21-3-6.31-.48-1-1-2.08-1.47-3.09s-1.06-1.82-1.6-2.73a.38.38 0 0 0-.65 0c-1.34 2.16-2.7 4.31-4 6.48s-2.64 4.42-4.09 6.58a28.14 28.14 0 0 1-2.23 3c-.41.48-.84.94-1.27 1.4a6.08 6.08 0 0 0-1 1.28 3.22 3.22 0 0 0-.29 1.18 1.72 1.72 0 0 1-.13.69c-.16.3-.59.37-.89.46a7.53 7.53 0 0 1-1.75.46 2.22 2.22 0 0 1-1.08-.28 5.31 5.31 0 0 0 .92-.55 5.34 5.34 0 0 0 1.18-1.41 9.72 9.72 0 0 0 1.15-3.4 24 24 0 0 0 .26-4.29v-3.2c0-.36.13-.81.18-1.22a11.87 11.87 0 0 0-.27-4.21c-.16-.68-.4-1.34-.58-2a6.16 6.16 0 0 1-.11-2.2 4.85 4.85 0 0 0-1.87-4.4A4.41 4.41 0 0 0 18 3.9c-.85-.12-1.69-.22-2.53-.42a24.31 24.31 0 0 0-2.47-.6c-1.74-.23-3.49-.12-5.23-.29a5.64 5.64 0 0 0-2 0A2.16 2.16 0 0 0 5 3a2.35 2.35 0 0 0-.31.3.13.13 0 0 1-.06-.17.38.38 0 0 0-.36-.47H1.91a11.17 11.17 0 0 1 1.29-.35c.75-.17 1.51-.3 2.27-.41A34.22 34.22 0 0 1 10 1.6c1.51 0 3 .08 4.53.13s3.08.06 4.62.07a34 34 0 0 0 4.58-.13 18.22 18.22 0 0 1 4.44-.28 27.11 27.11 0 0 1 4.34 1 40.63 40.63 0 0 1 3.89 1.14 6.69 6.69 0 0 1 3.81 4.22c.44 1.27.69 2.62 1 3.92.4 1.47.84 2.94 1.29 4.4a10.27 10.27 0 0 0 .67 1.79c.29.56.66 1.07.9 1.66a15.83 15.83 0 0 1 .58 2c.18.71.35 1.42.53 2.13.33 1.35.71 2.68 1 4a6 6 0 0 0 1.35 3.09c.2.22 0 .22-.26.24zm0 0" class="cls-1"/><path d="M25.81 22a.78.78 0 0 1-.3-.06h-.06a.87.87 0 0 1-.54-1l.19-1c.1-.56.21-1.14.31-1.72l.06-.35a6.89 6.89 0 0 0 .14-1 11.23 11.23 0 0 0 0-1.15c0-.42-.07-.85-.1-1.27s-.08-1-.12-1.5v-.32a3.22 3.22 0 0 1 .25-2 2.86 2.86 0 0 1 1.35-1.07l.37-.19.2-.11a5 5 0 0 1 1.74-.71 4.83 4.83 0 0 1 .67 0 2.36 2.36 0 0 1 1.33.33 1.48 1.48 0 0 1 .4 1.75c-.59 2.06-1.26 4-2 5.88a16 16 0 0 1-1.34 2.68c-.32.5-.65 1-1 1.46l-.69 1a.9.9 0 0 1-.73.41zm3.95-11.8a2.23 2.23 0 0 0-1.07.3l-.37.2-.44.24-.33.15a2.69 2.69 0 0 0-.36.18c-.22.14-.25.29-.23.88 0 .75.1 1.52.16 2.27v.53a14.1 14.1 0 0 1 .09 1.78v.59a12.91 12.91 0 0 0 .79-1.57 64.81 64.81 0 0 0 1.87-5.55z" class="cls-1"/><path d="M30.83 9.27a2.49 2.49 0 0 0-1.59-.19 5.21 5.21 0 0 0-1.73.75c-.55.31-1.16.48-1.5 1a3.49 3.49 0 0 0-.14 2c.06.92.15 1.84.22 2.76a11.78 11.78 0 0 1 0 1.21 10.92 10.92 0 0 1-.21 1.43c-.16.92-.33 1.83-.5 2.75a.29.29 0 0 0 .2.35l.12.05a.29.29 0 0 0 .32-.13c.55-.83 1.14-1.64 1.67-2.48A15.51 15.51 0 0 0 29 16.23c.75-1.9 1.41-3.86 2-5.82.1-.37.23-.87-.16-1.13zM28.52 16a21.06 21.06 0 0 1-2.36 4.17l.21-1.17a16 16 0 0 0 .33-2.26 18.93 18.93 0 0 0-.13-2.19c-.07-.78-.13-1.56-.17-2.35 0-.57 0-1.06.49-1.4.23-.15.49-.24.73-.36l.8-.44a2.72 2.72 0 0 1 1.64-.35 1 1 0 0 1 .46.11c.08.07-.06.43-.08.51-.55 1.93-1.2 3.84-1.92 5.71zm-12.7-2.54A3.53 3.53 0 0 1 12.4 10a3.29 3.29 0 0 1 1-2.43 3.64 3.64 0 0 1 2.46-1A3.53 3.53 0 0 1 19.35 10a3.51 3.51 0 0 1-3.48 3.44zm.08-5.17a1.86 1.86 0 0 0-1.25.53 1.57 1.57 0 0 0-.5 1.16 1.77 1.77 0 0 0 1.67 1.75A1.77 1.77 0 0 0 17.6 10a1.78 1.78 0 0 0-1.67-1.71z" class="cls-1"/></g></g></symbol><symbol id="feture-8" viewBox="0 0 294.94 364"><defs><style>.cls-1,.cls-3{fill:none}.cls-2{clip-path:url(#clip-path)}.cls-3{stroke:#000;stroke-linecap:round;stroke-linejoin:round;stroke-width:25px}</style><clipPath id="clip-path"><path d="M12.5 11.5h270v369h-270z" class="cls-1"/></clipPath></defs><g id="Слой_2"><g id="Isolation_Mode"><g class="cls-2"><path d="M176 294.62c-4.4-6.61-28.57-39.13-28.57-39.13-12 15.76-22.47 30-28.58 39.13-4.14 6.22-7.13 13.41-7.1 21.46a35.68 35.68 0 0 0 71.36 0c.07-8.08-2.93-15.23-7.11-21.46z" class="cls-3"/></g><path d="M210.41 12.5a71.36 71.36 0 0 0-62.94 37.69 71.79 71.79 0 0 0-135 34.34c0 16.3 11.21 31.33 20.34 43.4 28.21 37.28 73 72.72 114.63 127.57 41.64-54.85 92.21-90.29 120.41-127.57A72 72 0 0 0 210.41 12.5z" class="cls-3"/></g></g></symbol><symbol id="feture-4" viewBox="0 0 34 34"><defs><style>.cls-1{fill:#fff}</style></defs><g id="Слой_2"><g id="Isolation_Mode"><path d="M17 34a17.05 17.05 0 0 1-7.79-1.89L1.38 33.9h-.24a1.07 1.07 0 0 1-.75-.31 1.06 1.06 0 0 1-.29-1l1.79-7.83A17 17 0 1 1 17 34zm-7.64-4.08a1.07 1.07 0 0 1 .51.13A14.86 14.86 0 1 0 4 24.13a1.07 1.07 0 0 1 .1.75l-1.5 6.57 6.57-1.5z" class="cls-1"/><path d="M28.73 5.27A16.6 16.6 0 0 0 2.32 24.74l-1.82 8a.66.66 0 0 0 .79.79l8-1.82A16.6 16.6 0 0 0 28.73 5.27zM17 32.27a15.29 15.29 0 0 1-7.32-1.87.66.66 0 0 0-.32-.08h-.15L2 32l1.64-7.19a.66.66 0 0 0-.06-.46A15.27 15.27 0 1 1 17 32.27zm0 0" class="cls-1"/><path d="M8.33 23.92a1 1 0 0 1-.71-1.71l4.3-4.32H8.33a1 1 0 0 1 0-2h6a1 1 0 0 1 .67 1.7l-4.3 4.32h3.59a1 1 0 0 1 0 2z" class="cls-1"/><path d="M14.33 22.32H9.77l5-5a.6.6 0 0 0-.42-1h-6a.6.6 0 1 0 0 1.2h4.56l-5 5a.6.6 0 0 0 .42 1h6a.6.6 0 0 0 0-1.2zm3.38-2.2a1 1 0 0 1-.71-1.78l6.08-6.12h-5.37a1 1 0 1 1 0-2.09h7.85a1 1 0 0 1 .74 1.78L20.22 18h5.34a1 1 0 1 1 0 2.09z" class="cls-1"/><path d="M25.56 18.44h-6.31L26 11.63a.64.64 0 0 0-.45-1.09h-7.84a.64.64 0 1 0 0 1.28H24l-6.77 6.81a.64.64 0 0 0 .45 1.09h7.85a.64.64 0 1 0 0-1.28zM22 28.34a.83.83 0 0 1-.38-1.57A9.21 9.21 0 0 0 25.51 23a.83.83 0 1 1 1.46.8 10.86 10.86 0 0 1-4.62 4.48.83.83 0 0 1-.35.06z" class="cls-1"/></g></g></symbol><symbol id="logo-img" viewBox="0 0 159.71 99.94"><defs><style>.cls-1{fill:#5363db;opacity:.4}</style></defs><g id="Слой_2"><g id="Layer_1"><path d="M26.89 92.73a53.76 53.76 0 0 0 53.69.05A53.78 53.78 0 0 0 0 46.26a53.76 53.76 0 0 0 26.89 46.47z" class="cls-1"/><path d="M34.08 65.92a53.76 53.76 0 0 0 46.47 26.9A53.78 53.78 0 0 0 34 12.23a53.76 53.76 0 0 0 .08 53.69z" class="cls-1"/><path d="M132.82 91.73a53.76 53.76 0 0 1-53.69.05 53.78 53.78 0 0 1 80.58-46.52 53.76 53.76 0 0 1-26.89 46.47z" class="cls-1"/><path d="M125.62 64.92a53.76 53.76 0 0 1-46.46 26.9 53.78 53.78 0 0 1 46.52-80.58 53.76 53.76 0 0 1-.06 53.68z" class="cls-1"/><path d="M53.49 46.52A53.76 53.76 0 0 0 80.29 93a53.78 53.78 0 0 0 0-93 53.76 53.76 0 0 0-26.8 46.52z" class="cls-1"/></g></g></symbol><symbol id="feture-5" viewBox="0 0 40 40"><defs><style>.cls-1{fill:#fff}</style></defs><g id="Слой_2"><g id="Isolation_Mode"><path d="M11.83 40a1.2 1.2 0 0 1-1.1-.72c-.21-.49-5.16-11.95-4-17.84v-.05a21.56 21.56 0 0 1 2.67-6.9 9.32 9.32 0 0 0 1.23-2.84C11 9.77 9.84 4.45 9 1.52a1.21 1.21 0 0 1 .2-1 1.19 1.19 0 0 1 1-.47h19.61A1.2 1.2 0 0 1 31 1.52c-.81 2.93-2 8.26-1.61 10.09a9.33 9.33 0 0 0 1.23 2.84 21.57 21.57 0 0 1 2.66 6.88v.08c1.16 5.89-3.79 17.35-4 17.84a1.2 1.2 0 0 1-1.1.72zm15.55-2.4a61.9 61.9 0 0 0 2-5.66A32 32 0 0 0 31 23.79l-9.8 6.65v7.16zm-8.57 0v-7.16L9 23.79a32 32 0 0 0 1.63 8.15c.75 2.4 1.56 4.5 2 5.66zM20 28.36l8.17-5.52H11.83zm10.57-7.92a19.58 19.58 0 0 0-2.08-4.82A11.27 11.27 0 0 1 27 12c-.25-1.31 0-3.61.63-6.82.19-.9.4-1.85.64-2.83H11.74c.24 1 .46 1.93.64 2.83.66 3.21.87 5.51.63 6.82a11.27 11.27 0 0 1-1.49 3.57 19.61 19.61 0 0 0-2.08 4.82z" class="cls-1"/><path d="M32.89 21.47a21.24 21.24 0 0 0-2.64-6.84 9.6 9.6 0 0 1-1.27-3c-.4-2.13 1-8.13 1.62-10.26a.82.82 0 0 0-.79-1H10.19a.82.82 0 0 0-.79 1c.59 2.13 2 8.13 1.62 10.26a9.59 9.59 0 0 1-1.27 3 21.23 21.23 0 0 0-2.64 6.84c-1.16 5.76 3.76 17.16 4 17.64a.82.82 0 0 0 .75.49h16.31a.82.82 0 0 0 .75-.49c.21-.48 5.13-11.88 4-17.64zm-21.71-6A11 11 0 0 0 12.63 12c.24-1.26 0-3.5-.63-6.67-.26-1.33-.55-2.51-.75-3.33h17.5c-.2.8-.49 2-.75 3.29-.65 3.17-.86 5.41-.62 6.67a11 11 0 0 0 1.45 3.45 19.66 19.66 0 0 1 2.24 5.39H8.93a19.68 19.68 0 0 1 2.24-5.39zm8 22.55h-6.81C12 37 11 34.71 10.22 32a29.1 29.1 0 0 1-1.65-9l10.61 7.17zm-8.6-15.53h18.84L20 28.82zM29.78 32c-.78 2.71-1.78 5-2.15 6h-6.81v-7.76l10.61-7.17a29.08 29.08 0 0 1-1.65 9zm0 0" class="cls-1"/><path d="M5.29 14.66a1.2 1.2 0 0 1-.85-2l.4-.4H1.2a1.2 1.2 0 0 1 0-2.4h3.64l-.4-.4a1.2 1.2 0 1 1 1.7-1.7l2.45 2.45a1.2 1.2 0 0 1 .15 1.51 1.16 1.16 0 0 1-.16.19l-2.44 2.4a1.19 1.19 0 0 1-.85.35z" class="cls-1"/><path d="M8.42 11.46a.82.82 0 0 0-.11-1L5.86 8a.82.82 0 0 0-1.15 1.13l1.06 1.06H1.2a.82.82 0 0 0 0 1.64h4.57l-1.06 1.05A.82.82 0 1 0 5.86 14l2.45-2.45.11-.13zm26.29 3.2a1.19 1.19 0 0 1-.85-.35l-2.45-2.45a1.14 1.14 0 0 1-.15-.19 1.21 1.21 0 0 1 .15-1.51l2.45-2.45a1.2 1.2 0 1 1 1.7 1.7l-.4.4h3.64a1.2 1.2 0 1 1 0 2.4h-3.64l.4.4a1.2 1.2 0 0 1-.85 2z" class="cls-1"/><path d="M38.8 10.19h-4.57l1.06-1.06A.82.82 0 1 0 34.13 8l-2.45 2.45a.82.82 0 0 0-.11 1l.11.13L34.13 14a.82.82 0 1 0 1.16-1.16l-1.06-1.06h4.57a.82.82 0 1 0 0-1.64zm0 0" class="cls-1"/></g></g></symbol><symbol id="feture-6" viewBox="0 0 19 51"><defs><style>.cls-1{fill:#fff}</style></defs><g id="Слой_2"><path id="Isolation_Mode" d="M12.71 51a1.48 1.48 0 0 1-1.46-1.47c-.06-6.15.42-10.51 1.45-13a10.6 10.6 0 0 1 2.06-2.93 5.13 5.13 0 0 0 1.16-1.6 3.61 3.61 0 0 0 .14-1.07 3.12 3.12 0 0 0-.1-.68 6.79 6.79 0 0 1-2.75.69H13a6.78 6.78 0 0 1-3.31-.86 6.71 6.71 0 0 1-3.47 1.1H6a6.77 6.77 0 0 1-3-.69 3.21 3.21 0 0 0-.1.9 3 3 0 0 0 .18.95v.05a4.34 4.34 0 0 0 1.15 1.45 9.36 9.36 0 0 1 2.17 2.79C7.54 39 8.06 43.37 8 49.52A1.47 1.47 0 0 1 6.53 51a1.43 1.43 0 0 1-1-.45 1.5 1.5 0 0 1-.42-1.06c.08-7.11-.65-10.25-1.28-11.63A7.06 7.06 0 0 0 2.25 36a6.16 6.16 0 0 1-1.9-2.71A6 6 0 0 1 0 31.47a6.23 6.23 0 0 1 1.36-4.08 1.44 1.44 0 0 1 1-.54h.13a1.44 1.44 0 0 1 .95.36 4.05 4.05 0 0 0 .78.54 3.86 3.86 0 0 0 1.78.43h.16a3.83 3.83 0 0 0 2.5-1 1.43 1.43 0 0 1 1-.39 1.45 1.45 0 0 1 .91.32 3.91 3.91 0 0 0 2.44.87h.16a3.9 3.9 0 0 0 1.83-.61 3.83 3.83 0 0 0 .54-.41 1.45 1.45 0 0 1 1-.36h.12a1.46 1.46 0 0 1 1 .54A6.14 6.14 0 0 1 19 30.8a6.3 6.3 0 0 1-.23 1.87 6.51 6.51 0 0 1-1.85 3 8 8 0 0 0-1.5 2.07c-.86 2-1.28 6.1-1.22 11.76a1.48 1.48 0 0 1-1.48 1.5zM6 26.12a5.93 5.93 0 0 1-2.72-.67A6.14 6.14 0 0 1 0 20.2a6.31 6.31 0 0 1 .23-1.87 6.52 6.52 0 0 1 1.86-3 8 8 0 0 0 1.5-2.07c.86-2 1.28-6.1 1.22-11.76A1.48 1.48 0 0 1 6.27 0a1.45 1.45 0 0 1 1.48 1.48c.06 6.15-.42 10.51-1.45 13a10.66 10.66 0 0 1-2.06 2.93A5.15 5.15 0 0 0 3.07 19a3.62 3.62 0 0 0-.14 1.07 3.15 3.15 0 0 0 1.69 2.69 3 3 0 0 0 1.38.37h.1a3 3 0 0 0 2.34-1.22 1.45 1.45 0 0 1 1.1-.58h.05a1.48 1.48 0 0 1 1.09.5 3.11 3.11 0 0 0 2.38 1.06 3 3 0 0 0 1.47-.44 3.17 3.17 0 0 0 1.5-2.81 3 3 0 0 0-.18-.95v-.05a4.35 4.35 0 0 0-1.15-1.45 9.37 9.37 0 0 1-2.17-2.79C11.46 12 10.94 7.63 11 1.48A1.42 1.42 0 0 1 12.47 0a1.48 1.48 0 0 1 1.46 1.51c-.08 7.1.65 10.25 1.28 11.63A7.13 7.13 0 0 0 16.75 15a6.19 6.19 0 0 1 1.92 2.73 6 6 0 0 1 .33 1.81A6.18 6.18 0 0 1 16.07 25a6 6 0 0 1-2.87.87H13a5.87 5.87 0 0 1-3.3-1 5.93 5.93 0 0 1-3.46 1.27H6z" class="cls-1"/></g></symbol></svg>